<mxfile host="65bd71144e" modified="2020-12-14T21:59:51.918Z" agent="5.0 (Macintosh; Intel Mac OS X 10_14_6) AppleWebKit/537.36 (KHTML, like Gecko) Code/1.51.1 Chrome/83.0.4103.122 Electron/9.3.3 Safari/537.36" etag="nMjo2MnMiHaQ715Bs2rU" version="13.10.0" type="embed">
    <diagram id="JLdwa0yYwWFveLtW3_97" name="Page-1">
        <mxGraphModel dx="515" dy="344" grid="1" gridSize="10" guides="1" tooltips="1" connect="1" arrows="1" fold="1" page="1" pageScale="1" pageWidth="850" pageHeight="1100" math="0" shadow="0">
            <root>
                <mxCell id="0"/>
                <mxCell id="1" parent="0"/>
                <mxCell id="3" value="" style="rounded=0;whiteSpace=wrap;html=1;" parent="1" vertex="1">
                    <mxGeometry x="70" y="30" width="150" height="400" as="geometry"/>
                </mxCell>
                <mxCell id="4" value="User" style="rounded=0;whiteSpace=wrap;html=1;" parent="1" vertex="1">
                    <mxGeometry x="70" y="30" width="150" height="30" as="geometry"/>
                </mxCell>
                <mxCell id="5" value="" style="rounded=0;whiteSpace=wrap;html=1;" parent="1" vertex="1">
                    <mxGeometry x="275" y="440" width="150" height="210" as="geometry"/>
                </mxCell>
                <mxCell id="6" value="kickoffs" style="rounded=0;whiteSpace=wrap;html=1;" parent="1" vertex="1">
                    <mxGeometry x="275" y="440" width="150" height="30" as="geometry"/>
                </mxCell>
                <mxCell id="7" value="" style="rounded=0;whiteSpace=wrap;html=1;" parent="1" vertex="1">
                    <mxGeometry x="440" y="60" width="150" height="120" as="geometry"/>
                </mxCell>
                <mxCell id="8" value="Interest" style="rounded=0;whiteSpace=wrap;html=1;" parent="1" vertex="1">
                    <mxGeometry x="440" y="60" width="150" height="30" as="geometry"/>
                </mxCell>
                <mxCell id="9" value="" style="rounded=0;whiteSpace=wrap;html=1;" parent="1" vertex="1">
                    <mxGeometry x="630" y="340" width="150" height="210" as="geometry"/>
                </mxCell>
                <mxCell id="10" value="Group" style="rounded=0;whiteSpace=wrap;html=1;" parent="1" vertex="1">
                    <mxGeometry x="630" y="340" width="150" height="30" as="geometry"/>
                </mxCell>
                <mxCell id="13" value="firstName: string" style="rounded=0;whiteSpace=wrap;html=1;" parent="1" vertex="1">
                    <mxGeometry x="70" y="90" width="150" height="30" as="geometry"/>
                </mxCell>
                <mxCell id="15" value="email: string(unique)" style="rounded=0;whiteSpace=wrap;html=1;" parent="1" vertex="1">
                    <mxGeometry x="70" y="180" width="150" height="30" as="geometry"/>
                </mxCell>
                <mxCell id="16" value="username: string(unique)" style="rounded=0;whiteSpace=wrap;html=1;" parent="1" vertex="1">
                    <mxGeometry x="70" y="150" width="150" height="30" as="geometry"/>
                </mxCell>
                <mxCell id="17" value="lastName: string" style="rounded=0;whiteSpace=wrap;html=1;" parent="1" vertex="1">
                    <mxGeometry x="70" y="120" width="150" height="30" as="geometry"/>
                </mxCell>
                <mxCell id="34" style="edgeStyle=orthogonalEdgeStyle;rounded=0;orthogonalLoop=1;jettySize=auto;html=1;entryX=0;entryY=0.5;entryDx=0;entryDy=0;" parent="1" source="18" target="8" edge="1">
                    <mxGeometry relative="1" as="geometry"/>
                </mxCell>
                <mxCell id="18" value="interests: array" style="rounded=0;whiteSpace=wrap;html=1;" parent="1" vertex="1">
                    <mxGeometry x="70" y="240" width="150" height="30" as="geometry"/>
                </mxCell>
                <mxCell id="19" value="password: string" style="rounded=0;whiteSpace=wrap;html=1;" parent="1" vertex="1">
                    <mxGeometry x="70" y="210" width="150" height="30" as="geometry"/>
                </mxCell>
                <mxCell id="20" value="startTime: Date" style="rounded=0;whiteSpace=wrap;html=1;" parent="1" vertex="1">
                    <mxGeometry x="275" y="560" width="150" height="30" as="geometry"/>
                </mxCell>
                <mxCell id="23" value="id" style="rounded=0;whiteSpace=wrap;html=1;" parent="1" vertex="1">
                    <mxGeometry x="275" y="470" width="150" height="30" as="geometry"/>
                </mxCell>
                <mxCell id="24" value="id" style="rounded=0;whiteSpace=wrap;html=1;" parent="1" vertex="1">
                    <mxGeometry x="70" y="60" width="150" height="30" as="geometry"/>
                </mxCell>
                <mxCell id="25" value="description: string" style="rounded=0;whiteSpace=wrap;html=1;" parent="1" vertex="1">
                    <mxGeometry x="440" y="150" width="150" height="30" as="geometry"/>
                </mxCell>
                <mxCell id="26" value="tag: string(unique)" style="rounded=0;whiteSpace=wrap;html=1;" parent="1" vertex="1">
                    <mxGeometry x="440" y="120" width="150" height="30" as="geometry"/>
                </mxCell>
                <mxCell id="27" value="id" style="rounded=0;whiteSpace=wrap;html=1;" parent="1" vertex="1">
                    <mxGeometry x="440" y="90" width="150" height="30" as="geometry"/>
                </mxCell>
                <mxCell id="28" value="timestamp: date" style="rounded=0;whiteSpace=wrap;html=1;" parent="1" vertex="1">
                    <mxGeometry x="70" y="360" width="150" height="30" as="geometry"/>
                </mxCell>
                <mxCell id="43" style="edgeStyle=orthogonalEdgeStyle;rounded=0;orthogonalLoop=1;jettySize=auto;html=1;entryX=0;entryY=0.25;entryDx=0;entryDy=0;" parent="1" source="29" target="24" edge="1">
                    <mxGeometry relative="1" as="geometry">
                        <Array as="points">
                            <mxPoint x="20" y="345"/>
                            <mxPoint x="20" y="68"/>
                            <mxPoint x="50" y="68"/>
                        </Array>
                    </mxGeometry>
                </mxCell>
                <mxCell id="29" value="friends: array" style="rounded=0;whiteSpace=wrap;html=1;" parent="1" vertex="1">
                    <mxGeometry x="70" y="330" width="150" height="30" as="geometry"/>
                </mxCell>
                <mxCell id="33" style="edgeStyle=orthogonalEdgeStyle;rounded=0;orthogonalLoop=1;jettySize=auto;html=1;exitX=1;exitY=0.5;exitDx=0;exitDy=0;entryX=0.087;entryY=-0.067;entryDx=0;entryDy=0;entryPerimeter=0;" parent="1" source="30" target="6" edge="1">
                    <mxGeometry relative="1" as="geometry"/>
                </mxCell>
                <mxCell id="30" value="pastKickoffs: array" style="rounded=0;whiteSpace=wrap;html=1;" parent="1" vertex="1">
                    <mxGeometry x="70" y="300" width="150" height="30" as="geometry"/>
                </mxCell>
                <mxCell id="32" style="edgeStyle=orthogonalEdgeStyle;rounded=0;orthogonalLoop=1;jettySize=auto;html=1;exitX=1;exitY=0.5;exitDx=0;exitDy=0;entryX=0.25;entryY=0;entryDx=0;entryDy=0;" parent="1" source="31" target="6" edge="1">
                    <mxGeometry relative="1" as="geometry"/>
                </mxCell>
                <mxCell id="31" value="upcomingKickoffs: array" style="rounded=0;whiteSpace=wrap;html=1;" parent="1" vertex="1">
                    <mxGeometry x="70" y="270" width="150" height="30" as="geometry"/>
                </mxCell>
                <mxCell id="35" value="users: array" style="rounded=0;whiteSpace=wrap;html=1;" parent="1" vertex="1">
                    <mxGeometry x="630" y="490" width="150" height="30" as="geometry"/>
                </mxCell>
                <mxCell id="36" value="name: string(unique)" style="rounded=0;whiteSpace=wrap;html=1;" parent="1" vertex="1">
                    <mxGeometry x="630" y="400" width="150" height="30" as="geometry"/>
                </mxCell>
                <mxCell id="37" value="creator: int(id)" style="rounded=0;whiteSpace=wrap;html=1;" parent="1" vertex="1">
                    <mxGeometry x="275" y="530" width="150" height="30" as="geometry"/>
                </mxCell>
                <mxCell id="38" value="upcomingKickoffs: array" style="rounded=0;whiteSpace=wrap;html=1;" parent="1" vertex="1">
                    <mxGeometry x="680" y="770" width="150" height="30" as="geometry"/>
                </mxCell>
                <mxCell id="42" style="edgeStyle=orthogonalEdgeStyle;rounded=0;orthogonalLoop=1;jettySize=auto;html=1;entryX=0;entryY=0.25;entryDx=0;entryDy=0;" parent="1" source="39" target="27" edge="1">
                    <mxGeometry relative="1" as="geometry"/>
                </mxCell>
                <mxCell id="39" value="interests: array" style="rounded=0;whiteSpace=wrap;html=1;" parent="1" vertex="1">
                    <mxGeometry x="275" y="620" width="150" height="30" as="geometry"/>
                </mxCell>
                <mxCell id="41" value="description: string" style="rounded=0;whiteSpace=wrap;html=1;" parent="1" vertex="1">
                    <mxGeometry x="275" y="590" width="150" height="30" as="geometry"/>
                </mxCell>
                <mxCell id="44" value="id" style="rounded=0;whiteSpace=wrap;html=1;" vertex="1" parent="1">
                    <mxGeometry x="630" y="370" width="150" height="30" as="geometry"/>
                </mxCell>
                <mxCell id="45" value="upcomingKickoffs: array" style="rounded=0;whiteSpace=wrap;html=1;" vertex="1" parent="1">
                    <mxGeometry x="630" y="520" width="150" height="30" as="geometry"/>
                </mxCell>
                <mxCell id="46" value="interests: array" style="rounded=0;whiteSpace=wrap;html=1;" vertex="1" parent="1">
                    <mxGeometry x="630" y="460" width="150" height="30" as="geometry"/>
                </mxCell>
                <mxCell id="48" value="" style="endArrow=classic;startArrow=classic;html=1;entryX=0;entryY=0.75;entryDx=0;entryDy=0;edgeStyle=orthogonalEdgeStyle;" edge="1" parent="1" target="46">
                    <mxGeometry width="50" height="50" relative="1" as="geometry">
                        <mxPoint x="595" y="130" as="sourcePoint"/>
                        <mxPoint x="640" y="280" as="targetPoint"/>
                    </mxGeometry>
                </mxCell>
                <mxCell id="50" value="" style="endArrow=classic;startArrow=classic;html=1;entryX=0;entryY=0.5;entryDx=0;entryDy=0;edgeStyle=orthogonalEdgeStyle;exitX=1;exitY=0.5;exitDx=0;exitDy=0;" edge="1" parent="1" source="24" target="35">
                    <mxGeometry width="50" height="50" relative="1" as="geometry">
                        <mxPoint x="420" y="240" as="sourcePoint"/>
                        <mxPoint x="640" y="310" as="targetPoint"/>
                    </mxGeometry>
                </mxCell>
                <mxCell id="51" value="" style="endArrow=classic;html=1;exitX=1;exitY=0.5;exitDx=0;exitDy=0;entryX=0;entryY=0.5;entryDx=0;entryDy=0;edgeStyle=orthogonalEdgeStyle;" edge="1" parent="1" source="23" target="45">
                    <mxGeometry width="50" height="50" relative="1" as="geometry">
                        <mxPoint x="590" y="410" as="sourcePoint"/>
                        <mxPoint x="640" y="360" as="targetPoint"/>
                    </mxGeometry>
                </mxCell>
                <mxCell id="53" value="upcomingKickoffs: array" style="rounded=0;whiteSpace=wrap;html=1;" vertex="1" parent="1">
                    <mxGeometry x="660" y="690" width="150" height="30" as="geometry"/>
                </mxCell>
                <mxCell id="54" value="upcomingKickoffs: array" style="rounded=0;whiteSpace=wrap;html=1;" vertex="1" parent="1">
                    <mxGeometry x="660" y="690" width="150" height="30" as="geometry"/>
                </mxCell>
                <mxCell id="55" value="upcomingKickoffs: array" style="rounded=0;whiteSpace=wrap;html=1;" vertex="1" parent="1">
                    <mxGeometry x="680" y="680" width="150" height="30" as="geometry"/>
                </mxCell>
                <mxCell id="56" value="upcomingKickoffs: array" style="rounded=0;whiteSpace=wrap;html=1;" vertex="1" parent="1">
                    <mxGeometry x="670" y="670" width="150" height="30" as="geometry"/>
                </mxCell>
                <mxCell id="57" value="upcomingKickoffs: array" style="rounded=0;whiteSpace=wrap;html=1;" vertex="1" parent="1">
                    <mxGeometry x="690" y="670" width="150" height="30" as="geometry"/>
                </mxCell>
                <mxCell id="58" value="creator: int(id)" style="rounded=0;whiteSpace=wrap;html=1;" vertex="1" parent="1">
                    <mxGeometry x="630" y="430" width="150" height="30" as="geometry"/>
                </mxCell>
                <mxCell id="59" value="upcomingKickoffs: array" style="rounded=0;whiteSpace=wrap;html=1;" vertex="1" parent="1">
                    <mxGeometry x="660" y="650" width="150" height="30" as="geometry"/>
                </mxCell>
                <mxCell id="60" value="upcomingKickoffs: array" style="rounded=0;whiteSpace=wrap;html=1;" vertex="1" parent="1">
                    <mxGeometry x="670" y="690" width="150" height="30" as="geometry"/>
                </mxCell>
                <mxCell id="61" value="upcomingKickoffs: array" style="rounded=0;whiteSpace=wrap;html=1;" vertex="1" parent="1">
                    <mxGeometry x="670" y="650" width="150" height="30" as="geometry"/>
                </mxCell>
                <mxCell id="62" value="title: string (required)" style="rounded=0;whiteSpace=wrap;html=1;" vertex="1" parent="1">
                    <mxGeometry x="275" y="500" width="150" height="30" as="geometry"/>
                </mxCell>
                <mxCell id="66" value="" style="endArrow=classic;startArrow=classic;html=1;entryX=0;entryY=0.5;entryDx=0;entryDy=0;edgeStyle=orthogonalEdgeStyle;exitX=1;exitY=0.5;exitDx=0;exitDy=0;" edge="1" parent="1" target="58">
                    <mxGeometry width="50" height="50" relative="1" as="geometry">
                        <mxPoint x="230" y="85" as="sourcePoint"/>
                        <mxPoint x="640" y="515" as="targetPoint"/>
                    </mxGeometry>
                </mxCell>
                <mxCell id="67" value="" style="endArrow=classic;html=1;edgeStyle=orthogonalEdgeStyle;exitX=1;exitY=0.5;exitDx=0;exitDy=0;entryX=0;entryY=0.5;entryDx=0;entryDy=0;" edge="1" parent="1" source="24" target="37">
                    <mxGeometry width="50" height="50" relative="1" as="geometry">
                        <mxPoint x="180" y="220" as="sourcePoint"/>
                        <mxPoint x="240" y="340" as="targetPoint"/>
                    </mxGeometry>
                </mxCell>
            </root>
        </mxGraphModel>
    </diagram>
</mxfile>